<svg  width="256" height="40" xmlns="http://www.w3.org/2000/svg" xmlns:xlink="http://www.w3.org/1999/xlink" viewBox="0 0 256 40"><defs><style>.a{fill:#c1272d;opacity:0.5;}.b{fill:url(#a);}</style><linearGradient id="a" x1="8" y1="20.26" x2="248" y2="20.26" gradientUnits="userSpaceOnUse"><stop offset="0.2" stop-color="#fbb03b"/><stop offset="1" stop-color="#c1272d" stop-opacity="0"/></linearGradient></defs><path class="a" d="M248,32,230.33,11.69l-1.74,5A410.68,410.68,0,0,0,175.75,6.07c-19.05-2.49-38.41-3.5-57.6-2-1.2,0-2.4.17-3.59.31L111,4.77c-2.38.27-4.78.44-7.14.8-4.73.71-9.47,1.29-14.15,2.21C80.29,9.38,71,11.57,61.82,13.89S43.54,19,34.56,22,16.69,28.28,8,32c8.93-3.07,18-5.66,27.14-8s18.33-4.37,27.58-6.06,18.52-3.12,27.84-4c4.65-.57,9.32-.79,14-1.14,2.32-.19,4.66-.18,7-.28l3.49-.1c1.16-.05,2.32-.08,3.48-.05a267,267,0,0,1,55.21,6,393.17,393.17,0,0,1,49.6,13.81l-1.72,5Z"/><path class="b" d="M248,32,230.33,11.69l-1.74,5A410.68,410.68,0,0,0,175.75,6.07c-19.05-2.49-38.41-3.5-57.6-2-1.2,0-2.4.17-3.59.31L111,4.77c-2.38.27-4.78.44-7.14.8-4.73.71-9.47,1.29-14.15,2.21C80.29,9.38,71,11.57,61.82,13.89S43.54,19,34.56,22,16.69,28.28,8,32c8.93-3.07,18-5.66,27.14-8s18.33-4.37,27.58-6.06,18.52-3.12,27.84-4c4.65-.57,9.32-.79,14-1.14,2.32-.19,4.66-.18,7-.28l3.49-.1c1.16-.05,2.32-.08,3.48-.05a267,267,0,0,1,55.21,6,393.17,393.17,0,0,1,49.6,13.81l-1.72,5Z"/></svg>