<svg  width="496" height="48" xmlns="http://www.w3.org/2000/svg" viewBox="0 0 496 48"><defs><style>.a{fill:#c1272d;opacity:0.5;}</style></defs><path class="a" d="M488,32,467.45,14.61l-.87,4.83Q410.79,11.1,354.66,6.87C316,4,277.09,2.57,238.27,3.8c-4.85.16-9.7.26-14.54.48l-14.53.77c-2.42.13-4.84.23-7.26.4L194.69,6,180.2,7.05c-19.3,1.67-38.56,3.61-57.76,6.05C84.05,18,45.83,24.09,8,32c38.09-6.49,76.46-11.16,114.9-14.6,19.21-1.72,38.47-2.94,57.71-3.89L195.05,13l7.22-.26c2.41-.08,4.82-.08,7.22-.13l14.44-.22c4.81-.05,9.62,0,14.43.06,38.46.21,76.87,3.1,115.1,7.34Q408.8,26,463.53,36.3l-.87,4.8Z"/></svg>