<svg  width="322" height="194" xmlns="http://www.w3.org/2000/svg" viewBox="0 0 322 194.82"><defs><style>.a{fill:#a0a0a0;stroke:#000;stroke-miterlimit:10;stroke-width:2px;opacity:0.25;}</style></defs><path class="a" d="M314.19,106a39.7,39.7,0,0,0-15.45-50.92,39.21,39.21,0,0,0,.41-5.67A39.69,39.69,0,0,0,243.82,13a82.06,82.06,0,0,0-74.44-4.16A39.67,39.67,0,0,0,119,11.37a39.62,39.62,0,0,0-32,4.32A52.43,52.43,0,0,0,12.64,77.54a39.71,39.71,0,0,0-1.19,42.73,39.68,39.68,0,0,0,45.46,63.05,48.82,48.82,0,0,0,60.27.18,57.69,57.69,0,0,0,38.91-.18,39.66,39.66,0,0,0,53.34-2.58,45.63,45.63,0,0,0,51.36,8.76q1.77.12,3.57.12A56.65,56.65,0,0,0,314.19,106Z"/></svg>