<svg  width="48" height="48" xmlns="http://www.w3.org/2000/svg" viewBox="0 0 48 48"><defs><style>.a,.d,.g,.j{fill:none;stroke-miterlimit:10;}.a{stroke:#fff;stroke-width:2px;}.b{fill:#bfbfbf;}.c{fill:#606060;opacity:0.5;}.d,.j{stroke:#606060;}.e{fill:#00f800;}.f{fill:#cd3c3a;}.g{stroke:#bfbfbf;}.h{fill:#797979;}.i{fill:#a8a8a8;}.j{stroke-width:0.5px;}</style></defs><path class="a" d="M12.61,6.21l7.12-.64a3.41,3.41,0,0,1,1.64.25L36,12a1.78,1.78,0,0,1,1.09,1.64v21a1.78,1.78,0,0,1-1.24,1.69l-15,4.73a1.64,1.64,0,0,1-.7.07l-7.61-.69A1.77,1.77,0,0,1,11,38.7V8A1.78,1.78,0,0,1,12.61,6.21Z"/><path class="b" d="M12.61,6.21l7.12-.64a3.41,3.41,0,0,1,1.64.25L36,12a1.78,1.78,0,0,1,1.09,1.64v21a1.78,1.78,0,0,1-1.24,1.69l-15,4.73a1.64,1.64,0,0,1-.7.07l-7.61-.69A1.77,1.77,0,0,1,11,38.7V8A1.78,1.78,0,0,1,12.61,6.21Z"/><path class="c" d="M12.61,6.21l7.12-.64.85-.08.34,35.6a1.64,1.64,0,0,1-.7.07l-7.61-.69A1.77,1.77,0,0,1,11,38.7V8A1.78,1.78,0,0,1,12.61,6.21Z"/><line class="d" x1="20.58" y1="5.49" x2="20.58" y2="41.2"/><circle class="e" cx="13.61" cy="22.91" r="0.65"/><circle class="e" cx="13.61" cy="24.94" r="0.65"/><circle class="f" cx="15.79" cy="22.78" r="0.65"/><circle class="e" cx="15.79" cy="24.81" r="0.65"/><circle class="e" cx="18.03" cy="22.72" r="0.65"/><circle class="e" cx="18.03" cy="24.76" r="0.65"/><line class="d" x1="13.73" y1="30.78" x2="18.02" y2="30.81"/><line class="d" x1="13.73" y1="33.06" x2="18.02" y2="33.09"/><line class="d" x1="13.73" y1="35.34" x2="18.02" y2="35.37"/><line class="g" x1="13.66" y1="30.19" x2="17.96" y2="30.22"/><line class="g" x1="13.66" y1="32.47" x2="17.96" y2="32.5"/><line class="g" x1="13.66" y1="34.75" x2="17.96" y2="34.78"/><polygon class="h" points="18.19 19.18 13.81 19.13 13.81 11.26 18.19 10.76 18.19 19.18"/><line class="d" x1="13.81" y1="11.01" x2="18.19" y2="10.76"/><polygon class="i" points="18.19 19.18 13.81 19.13 18.19 18.41 18.19 19.18"/><path class="j" d="M31.45,37.76V29.51a2.61,2.61,0,0,1,2.61-2.61h3.07"/><path class="d" d="M12.61,6.21l7.12-.64a3.41,3.41,0,0,1,1.64.25L36,12a1.78,1.78,0,0,1,1.09,1.64v21a1.78,1.78,0,0,1-1.24,1.69l-15,4.73a1.64,1.64,0,0,1-.7.07l-7.61-.69A1.77,1.77,0,0,1,11,38.7V8A1.78,1.78,0,0,1,12.61,6.21Z"/></svg>