<svg  width="48" height="48" xmlns="http://www.w3.org/2000/svg" viewBox="0 0 48 48"><defs><style>.a{opacity:0.7;}.b,.d{fill:none;}.b{stroke:#fff;stroke-width:2px;}.b,.c,.d,.e{stroke-miterlimit:10;}.c{fill:#bfbfbf;}.c,.d,.e{stroke:#606060;}.d{stroke-width:0.5px;}.e{fill:#eaeaea;}.f{fill:#3d46a2;}.g{fill:#a8a8a8;}.h{fill:#797979;}.i{fill:#0085c7;}.j{fill:#2db9e7;}</style></defs><g class="a"><path class="b" d="M41,31.67l-1.22-4.5a.93.93,0,0,0-.9-.69H33.93c.91-.43,1.46-1,1.46-1.58,0-1.26-1-2.07-2.56-2.51h6.29a1.74,1.74,0,0,0,1.71-1.83L39.38,7.17a1.73,1.73,0,0,0-1.71-1.68H21a1.74,1.74,0,0,0-1.71,1.62l-1,13.39A1.74,1.74,0,0,0,20,22.39h6c-1.44.44-2.31,1.25-2.31,2.51,0,.6.55,1.15,1.46,1.58H20.06a.92.92,0,0,0-.9.7L18,31.68a.93.93,0,0,0,.91,1.16H40.07A.93.93,0,0,0,41,31.67Z"/><ellipse class="c" cx="29.57" cy="24.4" rx="5.63" ry="2.82"/><ellipse class="d" cx="29.57" cy="22.84" rx="2.41" ry="2.06"/><path class="e" d="M37.67,5.49H21a1.74,1.74,0,0,0-1.71,1.62l-1,13.39A1.74,1.74,0,0,0,20,22.39H39.12a1.74,1.74,0,0,0,1.71-1.83L39.38,7.17A1.73,1.73,0,0,0,37.67,5.49Z"/><path class="f" d="M36.51,6.77H22.25a1.44,1.44,0,0,0-1.46,1.31l-.87,10.83a1.44,1.44,0,0,0,1.47,1.53H37.75A1.44,1.44,0,0,0,39.22,19L38,8.13A1.45,1.45,0,0,0,36.51,6.77Z"/><path class="e" d="M20.06,26.48H38.85a.93.93,0,0,1,.9.69L41,31.67a.93.93,0,0,1-.9,1.17H18.93A.93.93,0,0,1,18,31.68l1.14-4.5A.92.92,0,0,1,20.06,26.48Z"/><polygon class="g" points="38.89 30.26 19.86 30.26 20.67 27.32 38.08 27.32 38.89 30.26"/><rect class="h" x="19.86" y="30.26" width="19.02" height="0.94"/><path class="i" d="M22.25,6.77a1.44,1.44,0,0,0-1.46,1.31l-.73,9.1c7.1,0,11.12-4.78,18.44-4.52L38,8.13a1.45,1.45,0,0,0-1.47-1.36Z"/><path class="j" d="M38,8.5l0-.37a1.45,1.45,0,0,0-1.47-1.36H22.25a1.44,1.44,0,0,0-1.46,1.31l-.41,5C30.25,12.58,28.72,9.18,38,8.5Z"/><path class="d" d="M36.51,6.77H22.25a1.44,1.44,0,0,0-1.46,1.31l-.87,10.83a1.44,1.44,0,0,0,1.47,1.53H37.75A1.44,1.44,0,0,0,39.22,19L38,8.13A1.45,1.45,0,0,0,36.51,6.77Z"/></g><path class="b" d="M28.79,41.82l-1.21-4.5a.94.94,0,0,0-.91-.69H21.75c.91-.42,1.47-1,1.47-1.57,0-1.26-1-2.08-2.57-2.52h6.29a1.74,1.74,0,0,0,1.71-1.82L27.21,17.33a1.74,1.74,0,0,0-1.72-1.68H8.86a1.74,1.74,0,0,0-1.72,1.62l-1,13.39a1.73,1.73,0,0,0,1.71,1.88h6c-1.44.44-2.31,1.26-2.31,2.52,0,.6.55,1.15,1.47,1.57H7.88a.93.93,0,0,0-.9.71l-1.14,4.5A.94.94,0,0,0,6.75,43H27.89A.94.94,0,0,0,28.79,41.82Z"/><ellipse class="c" cx="17.39" cy="34.55" rx="5.63" ry="2.82"/><ellipse class="d" cx="17.39" cy="33" rx="2.41" ry="2.06"/><path class="e" d="M25.49,15.65H8.86a1.74,1.74,0,0,0-1.72,1.62l-1,13.39a1.73,1.73,0,0,0,1.71,1.88H26.94a1.74,1.74,0,0,0,1.71-1.82L27.21,17.33A1.74,1.74,0,0,0,25.49,15.65Z"/><path class="f" d="M24.33,16.92H10.08a1.45,1.45,0,0,0-1.47,1.31L7.75,29.07A1.44,1.44,0,0,0,9.21,30.6H25.57a1.46,1.46,0,0,0,1.48-1.48L25.8,18.28A1.45,1.45,0,0,0,24.33,16.92Z"/><path class="e" d="M7.88,36.63H26.67a.94.94,0,0,1,.91.69l1.21,4.5a.94.94,0,0,1-.9,1.18H6.75a.94.94,0,0,1-.91-1.16L7,37.34A.93.93,0,0,1,7.88,36.63Z"/><polygon class="g" points="26.71 40.42 7.69 40.42 8.49 37.47 25.91 37.47 26.71 40.42"/><rect class="h" x="7.69" y="40.42" width="19.02" height="0.94"/><path class="i" d="M10.08,16.92a1.45,1.45,0,0,0-1.47,1.31l-.73,9.1c7.1.05,11.12-4.78,18.44-4.52l-.52-4.53a1.45,1.45,0,0,0-1.47-1.36Z"/><path class="j" d="M25.85,18.65l-.05-.37a1.45,1.45,0,0,0-1.47-1.36H10.08a1.45,1.45,0,0,0-1.47,1.31l-.4,5.05C18.07,22.73,16.54,19.34,25.85,18.65Z"/><path class="d" d="M24.33,16.92H10.08a1.45,1.45,0,0,0-1.47,1.31L7.75,29.07A1.44,1.44,0,0,0,9.21,30.6H25.57a1.46,1.46,0,0,0,1.48-1.48L25.8,18.28A1.45,1.45,0,0,0,24.33,16.92Z"/></svg>