<svg  width="72" height="48" xmlns="http://www.w3.org/2000/svg" viewBox="0 0 72 48"><defs><style>.a{fill:#97b550;}.b{fill:#fff;}</style></defs><path class="a" d="M23.92,42.5a1.29,1.29,0,0,1-1.26-1l-.55-3.72a11.78,11.78,0,0,1-2.22-1.25l-3.58,1.4a1.55,1.55,0,0,1-.45.07,1.27,1.27,0,0,1-1.12-.64l-3.08-5.17A1.27,1.27,0,0,1,12,30.54l3-2.29A9.85,9.85,0,0,1,14.93,27,8.59,8.59,0,0,1,15,25.75l-3-2.29a1.19,1.19,0,0,1-.33-1.6l3.07-5.19A1.25,1.25,0,0,1,15.87,16a1.32,1.32,0,0,1,.44.08l3.6,1.4a12.1,12.1,0,0,1,2.22-1.25l.54-3.69a1.25,1.25,0,0,1,1.25-1.07h6.16a1.28,1.28,0,0,1,1.27,1.06l.54,3.7a12.1,12.1,0,0,1,2.22,1.25l3.58-1.4a1.55,1.55,0,0,1,.45-.07,1.27,1.27,0,0,1,1.12.64l3.08,5.17A1.27,1.27,0,0,1,42,23.46l-3,2.29A9.73,9.73,0,0,1,39.07,27c0,.43,0,.84-.07,1.25l3,2.29a1.22,1.22,0,0,1,.33,1.6l-3.09,5.19a1.25,1.25,0,0,1-1.11.64,1.32,1.32,0,0,1-.44-.08l-3.6-1.4a11.58,11.58,0,0,1-2.22,1.25l-.54,3.69a1.23,1.23,0,0,1-1.25,1.07ZM27,21.88A5.13,5.13,0,1,0,32.28,27,5.2,5.2,0,0,0,27,21.88Z"/><path class="b" d="M30.08,12a.79.79,0,0,1,.78.64l.57,4A11.17,11.17,0,0,1,34,18.08l3.83-1.5a.84.84,0,0,1,.27,0,.75.75,0,0,1,.68.38l3.09,5.19a.76.76,0,0,1-.2.95l-3.26,2.47A8.84,8.84,0,0,1,38.57,27a11.45,11.45,0,0,1-.1,1.47l3.23,2.47a.72.72,0,0,1,.19.95l-3.08,5.19a.79.79,0,0,1-.68.39.86.86,0,0,1-.27,0L34,35.92a10.71,10.71,0,0,1-2.6,1.47l-.58,4a.75.75,0,0,1-.76.64H23.92a.8.8,0,0,1-.78-.64l-.57-4A11.17,11.17,0,0,1,20,35.92l-3.83,1.5a.84.84,0,0,1-.27,0,.75.75,0,0,1-.68-.38l-3.09-5.19a.76.76,0,0,1,.2-.95l3.26-2.47a8.07,8.07,0,0,1,0-2.94l-3.26-2.47a.69.69,0,0,1-.19-.95l3.06-5.19a.79.79,0,0,1,.68-.39.86.86,0,0,1,.27,0L20,18.08a11.42,11.42,0,0,1,2.6-1.47l.58-4a.76.76,0,0,1,.76-.64h6.16M27,32.63A5.63,5.63,0,1,0,21.22,27,5.73,5.73,0,0,0,27,32.63M30.08,11H23.92a1.75,1.75,0,0,0-1.74,1.47l-.51,3.44a13.08,13.08,0,0,0-1.83,1l-3.33-1.3a1.94,1.94,0,0,0-.64-.12,1.79,1.79,0,0,0-1.55.9L11.26,21.6a1.69,1.69,0,0,0,.47,2.27L14.5,26a10.08,10.08,0,0,0-.07,1c0,.35,0,.7.05,1l-2.8,2.12a1.74,1.74,0,0,0-.46,2.24l3.1,5.21a1.73,1.73,0,0,0,1.54.87,2.1,2.1,0,0,0,.56-.08h0l0,0,3.34-1.3a12,12,0,0,0,1.83,1l.5,3.41v.07A1.79,1.79,0,0,0,23.92,43h6.16a1.74,1.74,0,0,0,1.75-1.51l.5-3.4a12.29,12.29,0,0,0,1.83-1l3.33,1.3a1.94,1.94,0,0,0,.64.12,1.79,1.79,0,0,0,1.55-.9l3.07-5.17a1.72,1.72,0,0,0-.47-2.28L39.52,28c0-.33,0-.67,0-1s0-.7,0-1l2.8-2.12a1.74,1.74,0,0,0,.46-2.24l-3.1-5.21a1.73,1.73,0,0,0-1.54-.87,2.1,2.1,0,0,0-.56.08h0l0,0L34.17,17a12,12,0,0,0-1.83-1l-.5-3.41A1.77,1.77,0,0,0,30.08,11ZM27,31.63A4.63,4.63,0,1,1,31.78,27,4.71,4.71,0,0,1,27,31.63Z"/><polygon class="a" points="48.23 25.45 63.21 25.45 55.72 32.93 48.23 25.45"/><path class="b" d="M62,26l-6.28,6.27L49.44,26H62m2.41-1H47l1.7,1.7L55,32.93l.71.71.71-.71,6.28-6.28,1.7-1.7Z"/></svg>