<svg xmlns="http://www.w3.org/2000/svg" viewBox="0 0 72 48"><defs><style>.a{fill:#1b70ef;}</style></defs><path class="a" d="M37.53,28.86A13.84,13.84,0,0,0,37.65,27a11.31,11.31,0,0,0-.14-1.86L41.64,22a.94.94,0,0,0,.24-1.2L38,14.23a1,1,0,0,0-1.21-.43l-4.86,1.9a14.39,14.39,0,0,0-3.29-1.86l-.74-5a1,1,0,0,0-1-.81H19.09a1,1,0,0,0-.95.81l-.74,5a14.72,14.72,0,0,0-3.29,1.86L9.25,13.8A1,1,0,0,0,8,14.23L4.16,20.81A.88.88,0,0,0,4.4,22l4.13,3.13a10.89,10.89,0,0,0,0,3.72L4.36,32a.94.94,0,0,0-.24,1.2L8,39.77a1,1,0,0,0,1.21.43l4.86-1.9a14.39,14.39,0,0,0,3.29,1.86l.74,5a1,1,0,0,0,1,.81h7.82a.94.94,0,0,0,.95-.81l.74-5a14,14,0,0,0,3.29-1.86l4.86,1.9A1,1,0,0,0,38,39.77l3.9-6.58a.89.89,0,0,0-.24-1.2ZM23,34.13A7.13,7.13,0,1,1,30.32,27,7.25,7.25,0,0,1,23,34.13Z"/><polygon class="a" points="51.43 25.66 67.33 25.66 59.38 33.62 51.43 25.66"/></svg>