<svg  width="48" height="48" xmlns="http://www.w3.org/2000/svg" viewBox="0 0 48 48"><defs><style>.a,.d,.f{fill:none;}.a{stroke:#fff;}.a,.b,.d,.f{stroke-miterlimit:10;}.a,.d{stroke-width:2px;}.b{fill:#eaeaea;}.b,.d,.f{stroke:#606060;}.c{fill:#0085c7;}.e{fill:#fff;}</style></defs><path class="a" d="M36,20V6.84a2,2,0,0,0-2-2H9a2,2,0,0,0-2,2V37.09a2,2,0,0,0,2,2H22.48A11.85,11.85,0,1,0,36,20Z"/><rect class="b" x="7" y="4.84" width="28.98" height="34.24" rx="2"/><circle class="c" cx="30.85" cy="30.7" r="11.85"/><line class="d" x1="14.9" y1="10.11" x2="31.59" y2="10.11"/><line class="d" x1="9.63" y1="10.11" x2="12.27" y2="10.11"/><line class="d" x1="14.9" y1="16.26" x2="31.59" y2="16.26"/><line class="d" x1="9.63" y1="16.26" x2="12.27" y2="16.26"/><line class="d" x1="14.9" y1="22.4" x2="23.24" y2="22.4"/><line class="d" x1="9.63" y1="22.4" x2="12.27" y2="22.4"/><line class="d" x1="14.9" y1="28.55" x2="19" y2="28.55"/><line class="d" x1="9.63" y1="28.55" x2="12.27" y2="28.55"/><path class="e" d="M23.39,21.48s-.11,1.33.88,1.75,2.63-.87,2.63-.87l1.76.87A13.77,13.77,0,0,0,26,25.87a3.82,3.82,0,0,1-1.7,1.2c-.19.09-.16,1.92-.88,1.58a2.09,2.09,0,0,0-1.51-2.24C20.7,26,20.76,28.5,20.76,28.5l2.63,2.64L26.9,32l1.76,2.64L26,39.92l-.87-3.52-1.76-.87V31.14L19,29.38a17.16,17.16,0,0,1,1.49-4.44A10.7,10.7,0,0,1,23.39,21.48Z"/><polygon class="e" points="36.91 26.88 32.53 27.27 31.41 29.05 31.55 30.95 32.45 31.62 34.28 31.59 35.13 32.88 34.64 35.73 35.44 37.61 37.45 37.04 38.45 32.44 39.39 30.01 37.68 27.58 38.43 27.58 39.64 29.34 41.29 28.69 39.37 26.38 41.43 27.9 42.34 29.34 41.6 25.69 39.85 22.78 35.49 20.08 33.67 21.29 33.67 22.78 34.77 23.35 34.55 22.35 35.23 22.23 35.26 23.48 33.48 23.55 32.54 24.11 32.05 25.08 31.21 26.73 32.12 27.27 32.89 26.36 35.49 25.55 35.63 26.22 36.16 26 35.99 25.18 36.98 25.35 36.91 26.88"/><circle class="f" cx="30.85" cy="30.7" r="11.85"/></svg>